<svg width="320" height="320" viewBox="0 0 320 320" fill="none" xmlns="http://www.w3.org/2000/svg">
<path d="M223.64 18.5787L301.421 96.3604C307.279 102.218 307.279 111.716 301.421 117.574L133.99 285.005C133.037 285.958 131.739 286.486 130.391 286.469L82.8135 285.866C81.5096 285.85 80.2636 285.325 79.3415 284.402L18.5786 223.64C12.7208 217.782 12.7208 208.284 18.5786 202.426L202.426 18.5787C208.284 12.7208 217.782 12.7208 223.64 18.5787Z" stroke="black" stroke-width="10"/>
<line x1="110.503" y1="103.431" x2="216.569" y2="209.497" stroke="black" stroke-width="10"/>
<path d="M198.891 15.0431C206.701 7.23262 219.365 7.23262 227.175 15.0431L304.957 92.8249C312.767 100.635 312.767 113.299 304.957 121.109L213.033 213.033L106.967 106.967L198.891 15.0431Z" fill="black"/>
</svg>
