<svg width="169" height="98" viewBox="0 0 169 98" fill="none" xmlns="http://www.w3.org/2000/svg">
<path d="M8.56 62H0.4L5.16 31.84H12.6C19.72 31.84 24.84 34.16 23.6 42.08C22.36 49.92 17.16 52.32 10.12 52.12L8.56 62ZM15.36 41.96C15.68 40.04 14.92 38.32 12.92 38.32L12.32 38.36L11.2 45.32C13.44 45.44 15 44.2 15.36 41.96ZM43.795 62H35.355V58.12H29.875L28.595 62H20.195L32.195 31.84H42.155L43.795 62ZM31.995 51.72H35.435L35.635 44.72C35.715 42.84 35.835 40.92 35.955 39.04H35.875C35.315 40.92 34.835 42.84 34.195 44.72L31.995 51.72ZM67.9738 62H59.1338L56.6138 49.44L56.4938 49.52C56.3338 51 56.1738 52.48 55.9338 53.96L54.6537 62H46.4938L51.2538 31.84H59.1338C66.2138 31.84 71.0138 33.92 69.7738 41.88C69.2538 45.2 67.3338 48.16 63.8938 49.44L67.9738 62ZM57.2138 45.76L57.7338 45.8C59.8938 45.8 61.3738 43.92 61.6538 41.96C62.0938 39.32 60.6538 38.2 58.4138 38.32L57.2138 45.76ZM92.1544 62H83.7144V58.12H78.2344L76.9544 62H68.5544L80.5544 31.84H90.5144L92.1544 62ZM80.3544 51.72H83.7944L83.9944 44.72C84.0744 42.84 84.1944 40.92 84.3144 39.04H84.2344C83.6744 40.92 83.1944 42.84 82.5544 44.72L80.3544 51.72Z" fill="black"/>
<path d="M133.4 62L138.16 31.84H153.32L152.2 38.96H145.2L144.56 43.16H150.84L149.68 50.28H143.4L142.68 54.88H149.68L148.56 62H133.4ZM167.641 62H153.361L158.121 31.84H166.281L162.641 54.88H168.761L167.641 62Z" fill="black"/>
<path d="M85.5905 95.4562C85.3071 96.2347 85.7085 97.0955 86.487 97.3788C87.2654 97.6621 88.1262 97.2608 88.4095 96.4823L85.5905 95.4562ZM122.561 1.36608C122.211 0.61527 121.319 0.290437 120.568 0.640544L108.333 6.34589C107.582 6.696 107.257 7.58847 107.607 8.33928C107.958 9.09009 108.85 9.41493 109.601 9.06482L120.476 3.9934L125.548 14.8691C125.898 15.6199 126.79 15.9447 127.541 15.5946C128.292 15.2445 128.617 14.352 128.267 13.6012L122.561 1.36608ZM88.4095 96.4823L122.612 2.51304L119.792 1.48698L85.5905 95.4562L88.4095 96.4823Z" fill="black"/>
<path d="M105.641 96.6032C105.991 97.354 106.883 97.6788 107.634 97.3287L119.869 91.6234C120.62 91.2733 120.945 90.3808 120.595 89.63C120.245 88.8792 119.352 88.5544 118.601 88.9045L107.726 93.9759L102.654 83.1002C102.304 82.3494 101.412 82.0245 100.661 82.3747C99.9099 82.7248 99.5851 83.6172 99.9352 84.368L105.641 96.6032ZM142.612 2.51304C142.895 1.73457 142.494 0.873807 141.715 0.590468C140.937 0.307129 140.076 0.708507 139.792 1.48698L142.612 2.51304ZM108.41 96.4823L142.612 2.51304L139.792 1.48698L105.59 95.4562L108.41 96.4823Z" fill="black"/>
</svg>
